<svg width="134" height="30" viewBox="0 0 134 30" fill="none" xmlns="http://www.w3.org/2000/svg">
<path d="M12.9787 0.132506C15.4745 -0.187908 18.0547 0.0650506 20.3988 0.9757C23.3162 2.08872 25.8627 4.12924 27.5659 6.74314C29.168 9.17154 30.0618 12.0553 30.0281 14.9727C30.0787 18.1431 29.0331 21.2967 27.1612 23.8431C25.458 26.1703 23.0802 28.0085 20.3819 29.0203C18.0716 29.9141 15.542 30.1839 13.0967 29.8804C10.2973 29.5263 7.59911 28.3458 5.42367 26.5413C3.29882 24.7875 1.69675 22.4434 0.802965 19.8464C-0.0739564 17.3168 -0.225731 14.5511 0.313913 11.9372C0.988468 8.64877 2.82663 5.5964 5.40681 3.45469C7.56538 1.68398 10.213 0.503512 12.9787 0.132506ZM13.1811 3.06682C12.1524 3.2186 11.1405 3.52214 10.1961 3.94374C7.39674 5.15794 5.08639 7.48516 3.90592 10.3014C2.86036 12.7298 2.67486 15.5292 3.34941 18.0757C4.04083 20.7402 5.69349 23.1348 7.90266 24.7538C9.94319 26.2547 12.4559 27.081 14.9686 27.081C17.5657 27.0979 20.1627 26.2378 22.237 24.6863C24.5304 22.9831 26.2 20.4366 26.8071 17.6372C27.3636 15.1582 27.1106 12.5106 26.0819 10.1834C24.8171 7.28279 22.3887 4.93871 19.4544 3.79197C17.4813 2.9825 15.289 2.74641 13.1811 3.06682ZM6.31745 16.7266C9.23491 13.8091 12.1861 10.9085 15.1035 7.97421C18.0379 10.8917 20.9722 13.8091 23.8896 16.7266C23.097 17.5023 22.3381 18.3118 21.5118 19.0706C19.8423 17.3843 18.139 15.7316 16.4695 14.0283C15.9973 13.5899 15.5589 13.1177 15.0867 12.6792C12.945 14.8041 10.8201 16.9458 8.66153 19.0706C7.8858 18.2949 7.09319 17.5192 6.31745 16.7266Z" fill="white"/>
<path d="M37.4482 2.45972C41.6136 2.45972 45.779 2.45972 49.9444 2.45972C49.9444 7.45143 49.9444 12.4263 49.9444 17.418C48.8482 17.4348 47.7521 17.418 46.6559 17.418C46.6559 13.4212 46.6559 9.4245 46.6559 5.42776C44.6828 5.42776 42.7266 5.42776 40.7536 5.42776C40.7536 9.4245 40.7536 13.4212 40.7536 17.418C39.6574 17.418 38.5613 17.418 37.4651 17.418C37.4482 12.4263 37.4482 7.45143 37.4482 2.45972ZM54.5482 6.389C55.9311 5.63013 57.6343 5.54581 59.1183 6.00113C60.2651 6.35527 61.26 7.16474 61.8671 8.2103C62.6766 9.57628 62.9127 11.2289 62.7778 12.7973C60.1133 12.7973 57.4488 12.7973 54.7843 12.7973C54.9192 13.3875 55.189 13.9946 55.6612 14.3993C56.3864 15.0402 57.4151 15.1414 58.3257 14.9896C59.1015 14.8547 59.7929 14.4162 60.3663 13.8766C60.9902 14.4331 61.6142 14.9727 62.2382 15.5292C61.4455 16.5242 60.2988 17.2493 59.034 17.5192C57.3308 17.8902 55.442 17.6372 53.9917 16.6422C52.9799 15.9508 52.221 14.9053 51.85 13.7248C51.3272 12.0721 51.4621 10.2171 52.2885 8.68249C52.8112 7.70438 53.587 6.89492 54.5482 6.389ZM55.7793 8.8174C55.1722 9.28959 54.8855 10.0316 54.7337 10.7736C56.3695 10.7736 58.0053 10.7736 59.6411 10.7736C59.5568 10.2002 59.3713 9.62687 59.0003 9.17154C58.2751 8.19344 56.7237 8.05853 55.7793 8.8174ZM69.9281 5.83249C71.429 5.49522 73.0816 5.89995 74.2621 6.91178C75.3751 7.85616 76.0159 9.28959 76.1677 10.723C76.3364 12.207 76.1509 13.7585 75.4088 15.0739C74.8017 16.1701 73.773 17.0301 72.5757 17.4011C71.4627 17.7553 70.1979 17.7384 69.1186 17.2831C68.4441 16.9964 67.8707 16.5073 67.3985 15.9508C67.3816 17.5866 67.3985 19.2224 67.3985 20.8582C66.3192 20.8582 65.2399 20.8582 64.1438 20.8582C64.1438 15.8834 64.1438 10.9254 64.1438 5.95054C65.2231 5.95054 66.3023 5.95054 67.3816 5.95054C67.3816 6.49019 67.3816 7.02983 67.3816 7.56947C68.0225 6.72628 68.8994 6.05172 69.9281 5.83249ZM69.5908 8.54758C68.7139 8.73308 67.9887 9.39077 67.6515 10.2171C67.2804 11.1278 67.2467 12.1902 67.6177 13.1177C67.9044 13.8428 68.4947 14.4668 69.2198 14.7366C69.6583 14.9053 70.1473 14.9221 70.6195 14.8547C71.6313 14.686 72.4745 13.8766 72.7781 12.9153C73.1828 11.6674 72.9804 10.1159 71.9686 9.20527C71.3446 8.59817 70.434 8.36208 69.5908 8.54758ZM80.35 6.18664C81.6653 5.61326 83.1831 5.57954 84.5322 6.00113C85.6958 6.37214 86.6908 7.1816 87.2979 8.24403C88.0905 9.61 88.3266 11.2458 88.1748 12.7973C85.5103 12.7973 82.8627 12.7973 80.1982 12.7973C80.35 13.455 80.6535 14.0958 81.21 14.5005C81.9352 15.057 82.9301 15.1414 83.807 14.9727C84.5659 14.8378 85.2236 14.3993 85.7801 13.8766C86.4041 14.4331 87.0281 14.9896 87.652 15.5292C86.91 16.4399 85.8813 17.1482 84.7177 17.4348C83.0145 17.8733 81.1088 17.6878 79.608 16.7434C78.4443 16.0183 77.5843 14.8547 77.2133 13.5393C76.7748 11.9878 76.9097 10.2508 77.6349 8.80054C78.2082 7.65379 79.1695 6.69255 80.35 6.18664ZM81.0245 8.95231C80.5186 9.4245 80.2825 10.0991 80.1476 10.7568C81.7834 10.7568 83.4192 10.7568 85.055 10.7568C84.9369 9.91356 84.5491 9.01977 83.7565 8.59817C82.8964 8.14284 81.7328 8.26089 81.0245 8.95231ZM91.9523 6.50705C93.3857 5.68072 95.1227 5.52894 96.7079 5.91681C97.8378 6.18664 98.8159 6.87805 99.5748 7.73811C98.934 8.37894 98.31 9.03663 97.6523 9.6606C97.0958 9.12095 96.4044 8.66563 95.6118 8.56445C94.7686 8.41267 93.8411 8.61504 93.2002 9.22214C92.0872 10.2508 91.9017 12.0553 92.5931 13.3707C92.9473 14.0283 93.5544 14.5511 94.2795 14.7366C95.1227 14.9727 96.0502 14.8209 96.7922 14.3656C97.1295 14.1633 97.4331 13.8934 97.7198 13.6236C98.3606 14.2644 98.9846 14.9053 99.6254 15.5461C98.8834 16.3893 97.939 17.0976 96.8428 17.4011C95.2745 17.8227 93.5375 17.7215 92.0872 16.9627C91.0417 16.423 90.1816 15.5461 89.642 14.5005C88.7819 12.831 88.7482 10.7736 89.5408 9.08722C90.0635 8.00793 90.9068 7.09728 91.9523 6.50705ZM115.933 5.95054C117.316 5.54581 118.85 5.64699 120.149 6.25409C121.397 6.84433 122.324 8.00794 122.763 9.30645C123.15 10.4195 123.269 11.6168 123.134 12.7804C120.469 12.7804 117.822 12.7804 115.157 12.7804C115.292 13.3707 115.562 13.944 116.017 14.3488C116.742 15.0064 117.805 15.1245 118.732 14.9559C119.508 14.8209 120.182 14.3656 120.756 13.8428C121.38 14.3993 122.004 14.939 122.628 15.4955C122.105 16.1195 121.481 16.6591 120.739 17.0132C119.322 17.7047 117.653 17.789 116.135 17.3843C114.685 16.9964 113.386 16.0183 112.678 14.686C111.7 12.8647 111.7 10.5544 112.627 8.71622C113.285 7.4177 114.499 6.37214 115.933 5.95054ZM116.068 8.88486C115.511 9.35705 115.241 10.0653 115.106 10.7736C116.742 10.7736 118.378 10.7736 120.014 10.7736C119.929 10.1834 119.744 9.59314 119.356 9.13782C118.58 8.15971 116.995 8.05853 116.068 8.88486ZM100.755 5.95054C102.863 5.95054 104.971 5.95054 107.096 5.95054C108.007 5.96741 108.968 6.13604 109.727 6.65882C110.924 7.4177 111.194 9.18841 110.401 10.3352C110.064 10.8242 109.558 11.1615 109.035 11.3976C109.592 11.5999 110.165 11.8529 110.57 12.3082C111.16 12.9322 111.329 13.8766 111.228 14.7029C111.143 15.4786 110.688 16.2038 110.03 16.6422C109.137 17.2325 108.04 17.4011 106.995 17.418C104.921 17.418 102.83 17.418 100.755 17.418C100.755 13.6067 100.755 9.77864 100.755 5.95054ZM103.976 10.5712C104.685 10.5712 105.393 10.5712 106.101 10.5712C106.472 10.5544 106.877 10.5375 107.18 10.3014C107.653 9.96415 107.737 9.20527 107.366 8.76681C107.096 8.46326 106.658 8.36208 106.27 8.36208C105.494 8.36208 104.735 8.36208 103.959 8.36208C103.959 9.08722 103.959 9.82924 103.976 10.5712ZM103.959 12.6118C103.959 13.3707 103.959 14.1127 103.959 14.8715C104.617 14.8715 105.258 14.8715 105.916 14.8715C106.438 14.8715 107.012 14.9221 107.484 14.6523C108.057 14.3319 108.159 13.4212 107.653 12.9828C107.332 12.6961 106.877 12.6286 106.455 12.6286C105.629 12.6118 104.803 12.6118 103.959 12.6118ZM122.965 5.9674C126.338 5.9674 129.694 5.9674 133.066 5.9674C133.066 6.89492 133.066 7.82243 133.066 8.74994C131.937 8.74994 130.807 8.74994 129.677 8.74994C129.677 11.6337 129.677 14.5343 129.677 17.418C128.581 17.4348 127.485 17.418 126.388 17.418C126.388 14.5174 126.388 11.6337 126.388 8.73308C125.258 8.73308 124.112 8.73308 122.982 8.73308C122.965 7.80557 122.965 6.87805 122.965 5.9674Z" fill="white"/>
<path d="M130.419 21.01C130.621 20.9763 130.807 20.9425 131.009 20.8919C131.127 21.1618 131.313 21.4822 131.65 21.4653C132.021 21.5159 132.223 21.1786 132.341 20.8919C132.527 20.9257 132.729 20.9763 132.915 21.01C132.847 21.2629 132.78 21.5159 132.611 21.7183C132.173 22.2748 131.211 22.2916 130.739 21.752C130.554 21.5496 130.486 21.2629 130.419 21.01ZM73.1322 22.6626C73.7562 22.3422 74.5656 22.5277 75.0041 23.0505C75.4763 23.5733 75.5943 24.3153 75.5943 25.0067C75.5943 25.6644 75.4426 26.3558 74.9872 26.8449C74.5319 27.3508 73.7225 27.5194 73.1154 27.199C72.8455 27.0641 72.6432 26.828 72.4577 26.5919C72.4577 27.2496 72.4577 27.8905 72.4577 28.5481C72.1372 28.5481 71.8 28.5481 71.4796 28.5481C71.4796 26.5751 71.4796 24.5851 71.4796 22.6121C71.8 22.6121 72.1372 22.6121 72.4577 22.6121C72.4577 22.8481 72.4577 23.0674 72.4577 23.3035C72.6432 23.0674 72.8455 22.7976 73.1322 22.6626ZM73.1828 23.4552C72.7443 23.6408 72.542 24.1298 72.4745 24.5683C72.4239 25.0236 72.4408 25.5295 72.6769 25.9342C72.8455 26.2378 73.1491 26.4907 73.5201 26.4907C73.8574 26.5076 74.1778 26.3052 74.3633 26.0186C74.6162 25.6476 74.6668 25.1754 74.6331 24.72C74.5994 24.2984 74.4645 23.8431 74.1272 23.5733C73.8574 23.3709 73.4864 23.3035 73.1828 23.4552ZM90.1985 22.865C90.8393 22.5952 91.5644 22.4771 92.2559 22.6121C92.6437 22.6964 93.0147 22.8987 93.2171 23.236C93.4532 23.5902 93.5038 24.0455 93.5038 24.4671C93.5038 25.3946 93.5038 26.3221 93.5038 27.2496C93.1834 27.2496 92.863 27.2496 92.5426 27.2496C92.5426 27.081 92.5426 26.9123 92.5426 26.7437C92.0872 27.3339 91.244 27.5532 90.5695 27.2328C89.5745 26.7606 89.5408 25.0573 90.5526 24.602C91.1766 24.2984 91.9017 24.3996 92.5594 24.5851C92.5257 24.231 92.492 23.7925 92.1378 23.607C91.5813 23.3203 90.9068 23.5058 90.3502 23.7251C90.3165 23.4215 90.2659 23.1517 90.1985 22.865ZM91.1934 25.1754C90.6538 25.4283 90.6707 26.3896 91.2609 26.5751C91.6656 26.6931 92.1715 26.5919 92.4245 26.2209C92.6269 25.9342 92.5763 25.5632 92.5931 25.226C92.1378 25.091 91.6319 24.973 91.1934 25.1754ZM102.425 22.5952C103.099 22.4603 103.841 22.6626 104.314 23.1686C104.87 23.7419 105.039 24.5851 104.938 25.3609C104.87 25.9342 104.617 26.4739 104.179 26.8618C103.504 27.4689 102.408 27.5194 101.666 26.9967C100.637 26.2547 100.469 24.7032 101.042 23.6239C101.312 23.118 101.835 22.7132 102.425 22.5952ZM102.34 23.5396C101.835 23.8263 101.649 24.4671 101.683 25.0067C101.666 25.5801 101.919 26.2209 102.492 26.4402C102.964 26.6257 103.538 26.3727 103.757 25.9174C104.061 25.3103 104.061 24.5345 103.723 23.9443C103.47 23.489 102.83 23.2697 102.34 23.5396ZM115.95 22.8819C116.574 22.5783 117.316 22.4771 117.99 22.6121C118.395 22.6795 118.8 22.9156 119.019 23.2697C119.255 23.6576 119.289 24.1129 119.289 24.5514C119.289 25.4452 119.289 26.339 119.289 27.2328C118.968 27.2328 118.648 27.2328 118.327 27.2328C118.327 27.0641 118.327 26.8955 118.344 26.7268C117.889 27.3171 117.029 27.5363 116.354 27.199C115.359 26.7268 115.343 25.0573 116.337 24.5683C116.961 24.2647 117.703 24.349 118.344 24.5514C118.327 24.1804 118.277 23.7419 117.923 23.5564C117.366 23.2866 116.708 23.4552 116.169 23.6913C116.085 23.4215 116.017 23.1517 115.95 22.8819ZM116.978 25.1585C116.422 25.3946 116.422 26.339 116.978 26.5582C117.383 26.6931 117.906 26.5919 118.159 26.2209C118.378 25.9342 118.311 25.5464 118.327 25.2091C117.906 25.091 117.417 24.973 116.978 25.1585ZM68.0225 27.2496C68.0225 25.6981 68.0225 24.1635 68.0225 22.6121C68.9668 22.6121 69.9112 22.6121 70.8556 22.6121C70.8556 22.8819 70.8556 23.1686 70.8556 23.4384C70.2316 23.4384 69.6077 23.4384 69.0006 23.4384C69.0006 24.7032 69.0006 25.968 69.0006 27.2328C68.6802 27.2496 68.3597 27.2496 68.0225 27.2496ZM75.9148 22.6289C76.2689 22.6289 76.6062 22.6289 76.9603 22.6289C77.3145 23.7757 77.6855 24.9224 78.0227 26.0692C78.3769 24.9224 78.7142 23.7757 79.0514 22.6289C79.3887 22.6289 79.726 22.6289 80.0801 22.6289C79.5236 24.231 79.0008 25.8331 78.4443 27.4351C78.2926 27.8567 78.0733 28.3289 77.618 28.5144C77.129 28.7168 76.5724 28.5987 76.1003 28.3964C76.1846 28.1434 76.2858 27.8904 76.3869 27.6375C76.6568 27.7218 76.994 27.8736 77.2639 27.6881C77.4156 27.5532 77.6011 27.3508 77.5 27.1316C76.9772 25.6307 76.4544 24.1298 75.9148 22.6289ZM80.7884 22.6289C81.9858 22.6289 83.1831 22.6289 84.3973 22.6289C84.4142 24.1804 84.3973 25.715 84.3973 27.2665C84.0769 27.2665 83.7565 27.2665 83.4361 27.2665C83.4192 26.0017 83.4529 24.7369 83.4361 23.4721C82.8795 23.4721 82.323 23.4721 81.7834 23.4721C81.7834 24.7369 81.7834 26.0017 81.7834 27.2665C81.463 27.2665 81.1257 27.2665 80.8053 27.2665C80.7884 25.715 80.7884 24.1635 80.7884 22.6289ZM85.426 22.6289C86.6233 22.6289 87.8375 22.6289 89.0349 22.6289C89.0011 24.1635 89.0349 25.715 89.018 27.2496C88.6976 27.2496 88.3772 27.2496 88.0568 27.2496C88.0568 25.9848 88.0568 24.72 88.0568 23.4552C87.5002 23.4552 86.9437 23.4552 86.3872 23.4552C86.3872 24.72 86.3872 25.9848 86.3872 27.2496C86.0668 27.2496 85.7464 27.2496 85.4091 27.2496C85.426 25.715 85.426 24.1635 85.426 22.6289ZM96.6405 27.2496C96.6405 25.6981 96.6405 24.1635 96.6405 22.6121C96.9609 22.6121 97.2982 22.6121 97.6186 22.6121C97.6186 23.3372 97.6186 24.0455 97.6186 24.7706C98.1582 24.0455 98.7147 23.3541 99.2544 22.6289C99.6422 22.6121 100.03 22.6121 100.401 22.6289C99.8783 23.2697 99.3893 23.9274 98.8834 24.5683C99.423 25.4621 99.9627 26.3558 100.519 27.2496C100.131 27.2496 99.7434 27.2496 99.3724 27.2496C99.0014 26.6088 98.6135 25.9848 98.2257 25.344C98.0233 25.597 97.7703 25.8162 97.6354 26.1029C97.6017 26.4908 97.6354 26.8786 97.6186 27.2496C97.2982 27.2496 96.9609 27.2496 96.6405 27.2496ZM105.798 22.6289C106.135 22.6289 106.455 22.6289 106.793 22.6289C107.18 23.3035 107.568 23.978 107.956 24.6526C108.057 24.602 108.091 24.4839 108.159 24.3828C108.496 23.7925 108.833 23.2192 109.17 22.6289C109.508 22.6289 109.828 22.6289 110.165 22.6289C110.165 24.1635 110.165 25.715 110.165 27.2496C109.845 27.2496 109.508 27.2496 109.187 27.2496C109.187 26.2209 109.187 25.2091 109.187 24.1804C108.782 24.8549 108.378 25.5295 107.973 26.2209C107.568 25.5464 107.164 24.8718 106.759 24.1973C106.742 25.2091 106.759 26.2378 106.759 27.2496C106.438 27.2496 106.118 27.2496 105.798 27.2496C105.798 25.715 105.798 24.1635 105.798 22.6289ZM111.245 22.6289C112.442 22.6289 113.639 22.6289 114.837 22.6289C114.837 24.1635 114.837 25.715 114.837 27.2496C114.516 27.2496 114.196 27.2496 113.875 27.2496C113.875 25.9848 113.875 24.72 113.875 23.4552C113.319 23.4552 112.762 23.4552 112.206 23.4552C112.206 24.72 112.206 25.9848 112.206 27.2496C111.885 27.2496 111.565 27.2496 111.245 27.2496C111.245 25.715 111.261 24.1635 111.245 22.6289ZM120.25 22.6289C120.587 22.6289 120.908 22.6289 121.245 22.6289C121.245 23.2529 121.245 23.8937 121.245 24.5177C121.818 24.5345 122.392 24.5177 122.965 24.5177C122.965 23.8768 122.965 23.2529 122.965 22.6121C123.285 22.6121 123.606 22.6121 123.926 22.6121C123.943 24.1635 123.926 25.6981 123.926 27.2496C123.606 27.2496 123.269 27.2496 122.948 27.2496C122.948 26.6088 122.948 25.9848 122.948 25.344C122.375 25.344 121.801 25.344 121.228 25.344C121.228 25.9848 121.228 26.6088 121.228 27.2496C120.891 27.2496 120.57 27.2496 120.233 27.2496C120.25 25.6981 120.25 24.1635 120.25 22.6289ZM125.022 22.6289C125.343 22.6289 125.663 22.6289 125.984 22.6289C125.984 23.6239 125.984 24.6357 125.984 25.6307C126.574 24.6357 127.164 23.6239 127.771 22.6289C128.092 22.6289 128.395 22.6289 128.716 22.6289C128.716 24.1635 128.716 25.715 128.716 27.2665C128.395 27.2665 128.075 27.2665 127.771 27.2665C127.771 26.2547 127.771 25.2428 127.771 24.231C127.164 25.2428 126.574 26.2547 125.967 27.2665C125.663 27.2665 125.343 27.2665 125.039 27.2665C125.022 25.715 125.022 24.1635 125.022 22.6289ZM129.778 27.2496C129.778 25.6981 129.778 24.1635 129.778 22.6121C130.098 22.6121 130.419 22.6121 130.739 22.6121C130.739 23.607 130.739 24.6189 130.739 25.6138C131.329 24.6189 131.92 23.607 132.527 22.6121C132.847 22.6121 133.151 22.6121 133.471 22.6121C133.471 24.1635 133.471 25.6981 133.471 27.2496C133.151 27.2496 132.847 27.2496 132.527 27.2496C132.527 26.2378 132.527 25.226 132.527 24.2141C131.937 25.226 131.329 26.2378 130.722 27.2328C130.402 27.2496 130.098 27.2496 129.778 27.2496Z" fill="white"/>
</svg>
